<?xml version="1.0" encoding="utf-8"?>
<!-- Generator: Adobe Illustrator 26.1.0, SVG Export Plug-In . SVG Version: 6.00 Build 0)  -->
<svg version="1.1" id="Camada_1" xmlns="http://www.w3.org/2000/svg" xmlns:xlink="http://www.w3.org/1999/xlink" x="0px" y="0px"
	 viewBox="0 0 128.6 124.9" style="enable-background:new 0 0 128.6 124.9;" xml:space="preserve">
<style type="text/css">
	.st0{fill:none;}
</style>
<g transform="matrix(1, 0, 0, 1, 0, 0)">
	<g id="shutterstock_1718299927-2">
		<path class="st0" d="M55.7,1.9c5.4-2.6,11.7-2.6,17.2,0l35.6,16.9c5.5,2.6,9.5,7.6,10.9,13.6l8.7,37.6c1.4,6-0.1,12.3-3.9,17.1
			l-24.5,30.3c-3.8,4.7-9.5,7.4-15.5,7.4H44.5c-6,0-11.8-2.7-15.6-7.4L4.4,87.1C0.6,82.3-0.9,76,0.5,70l8.7-37.6
			c1.4-5.9,5.4-10.9,10.9-13.6L55.7,1.9z"/>
		<path d="M64.3,3c-2.5,0-5,0.6-7.3,1.6L21.4,21.6c-2.3,1.1-4.4,2.7-6,4.7c-1.6,2-2.7,4.3-3.3,6.8L3.4,70.7c-0.6,2.5-0.6,5.1,0,7.6
			c0.6,2.5,1.7,4.9,3.3,6.9l24.5,30.3c1.6,2,3.6,3.6,5.9,4.7c2.3,1.1,4.8,1.7,7.3,1.7l39.6,0c2.5,0,5.1-0.6,7.3-1.7
			c2.3-1.1,4.3-2.7,5.9-4.7l24.5-30.3c1.6-2,2.8-4.4,3.3-6.9c0.6-2.5,0.6-5.1,0-7.6l-8.7-37.6c-0.6-2.5-1.7-4.8-3.3-6.8
			c-1.6-2-3.7-3.6-6-4.7L71.6,4.6C69.3,3.6,66.8,3,64.3,3 M64.3,0c2.9,0,5.9,0.6,8.6,1.9l35.6,16.9c5.5,2.6,9.5,7.6,10.9,13.6
			l8.7,37.6c1.4,6-0.1,12.3-3.9,17.1l-24.5,30.3c-3.8,4.7-9.5,7.4-15.6,7.4l-39.6,0c-6,0-11.8-2.7-15.6-7.4L4.4,87.1
			C0.6,82.3-0.9,76,0.5,70l8.7-37.6c1.4-5.9,5.4-10.9,10.9-13.6L55.7,1.9C58.4,0.6,61.4,0,64.3,0z"/>
	</g>
</g>
</svg>
