<svg xmlns="http://www.w3.org/2000/svg" width="42.089" height="41.73" viewBox="0 0 42.089 41.73">
  <g id="Grupo_4170" data-name="Grupo 4170" transform="translate(-1242.835 -77.978)">
    <path id="Icon_ionic-ios-close-circle" data-name="Icon ionic-ios-close-circle" d="M21.419,3.375A17.866,17.866,0,1,0,39.464,21.24,17.953,17.953,0,0,0,21.419,3.375Zm4.572,24.332-4.572-4.526-4.572,4.526a1.4,1.4,0,0,1-1.961,0,1.359,1.359,0,0,1,0-1.941l4.572-4.526-4.572-4.526a1.359,1.359,0,0,1,0-1.941,1.4,1.4,0,0,1,1.961,0L21.419,19.3l4.572-4.526a1.4,1.4,0,0,1,1.961,0,1.369,1.369,0,0,1,0,1.941L23.38,21.24l4.572,4.526a1.369,1.369,0,0,1,0,1.941A1.387,1.387,0,0,1,25.991,27.707Z" transform="translate(1242.46 77.603)" fill="#08f1dc"/>
    <g id="Icon_ionic-md-close-circle-outline" data-name="Icon ionic-md-close-circle-outline" transform="translate(1242.835 77.978)">
      <path id="Caminho_213" data-name="Caminho 213" d="M24.419,7.588A16.8,16.8,0,0,1,36.3,12.463a16.561,16.561,0,0,1,0,23.553,16.907,16.907,0,0,1-23.756,0,16.561,16.561,0,0,1,0-23.553A16.8,16.8,0,0,1,24.419,7.588m0-4.213A20.866,20.866,0,1,0,45.464,24.24,20.952,20.952,0,0,0,24.419,3.375Z" transform="translate(-3.375 -3.375)" fill="#343433"/>
      <path id="Caminho_214" data-name="Caminho 214" d="M29.018,26.454l-2.565,2.565-6.6-6.6-6.6,6.6-2.565-2.565,6.6-6.6-6.6-6.6,2.565-2.565,6.6,6.6,6.6-6.6,2.565,2.565-6.6,6.6Z" transform="translate(1.192 1.012)" fill="#343433"/>
    </g>
  </g>
</svg>
