<?xml version="1.0" encoding="utf-8"?>
<!-- Generator: Adobe Illustrator 26.1.0, SVG Export Plug-In . SVG Version: 6.00 Build 0)  -->
<svg version="1.1" id="Camada_1" xmlns="http://www.w3.org/2000/svg" xmlns:xlink="http://www.w3.org/1999/xlink" x="0px" y="0px"
	 viewBox="0 0 198.4 228.4" style="enable-background:new 0 0 198.4 228.4;" xml:space="preserve">
<style type="text/css">
	.st0{fill:#9B54D4;}
	.st1{fill:#FFA700;}
	.st2{fill:none;}
	.st3{fill:#FDA729;}
	.st4{fill:#243365;}
	.st5{fill:#324174;}
	.st6{enable-background:new    ;}
	.st7{fill:#D58B1F;}
</style>
<g id="Grupo_4122" transform="translate(-2042.955 675.064)">
	<g id="Caminho_3341">
		<path class="st0" d="M2141.3-457.9l-87.1-50.9l0-103.3l87.1-51.8l88.9,51.8v103.3L2141.3-457.9z M2058.1-511.1l83.2,48.6
			l84.9-48.6v-98.7l-84.9-49.5l-83.2,49.5L2058.1-511.1z"/>
	</g>
	<g id="Grupo_2923" transform="translate(2083.282 -627.149)">
		<g id="Grupo_2610" transform="translate(0 0)">
			<g id="Polígono_14">
				<path class="st1" d="M118.6,96c0,2.2-1.2,4.2-3.1,5.2l-53.3,29.8c-1.8,1-4,1-5.9,0L3.1,101.2C1.2,100.2,0,98.2,0,96V36.7
					c0-2.2,1.2-4.2,3.1-5.2L56.4,1.6c1.8-1,4-1,5.9,0l53.3,29.8c1.9,1.1,3.1,3.1,3.1,5.2V96z"/>
			</g>
			<g id="Polígono_18">
				<path class="st1" d="M106.3,90.2c0,2.1-1.1,4.1-3,5.2l-41,23.8c-1.9,1.1-4.2,1.1-6,0l-41-23.8c-1.8-1.1-3-3-3-5.2V42.5
					c0-2.1,1.1-4.1,3-5.2l41-23.8c1.9-1.1,4.2-1.1,6,0l41,23.8c1.8,1.1,3,3.1,3,5.2V90.2z"/>
			</g>
			<g id="Polígono_19" transform="translate(111.81 6.143) rotate(90)">
				<g>
					<path class="st2" d="M86.8,0C89,0,91,1.2,92,3l26.7,46.5c1.1,1.8,1.1,4.1,0,6L92,102c-1.1,1.9-3.1,3-5.2,3H33.6
						c-2.2,0-4.1-1.2-5.2-3L1.7,55.5c-1.1-1.8-1.1-4.1,0-6L28.4,3c1.1-1.9,3.1-3,5.2-3H86.8z"/>
				</g>
				<g>
					<path class="st3" d="M33.6,1c-1.8,0-3.4,1-4.3,2.5L2.6,50c-0.9,1.5-0.9,3.4,0,5l26.7,46.5c0.9,1.6,2.6,2.5,4.3,2.5h53.3
						c1.8,0,3.4-1,4.3-2.5L117.8,55c0.9-1.5,0.9-3.4,0-5L91.2,3.5C90.3,2,88.6,1,86.8,1H33.6 M33.6,0h53.3C89,0,91,1.2,92,3
						l26.7,46.5c1.1,1.8,1.1,4.1,0,6L92,102c-1.1,1.9-3.1,3-5.2,3H33.6c-2.2,0-4.1-1.2-5.2-3L1.7,55.5c-1.1-1.8-1.1-4.1,0-6L28.4,3
						C29.4,1.2,31.4,0,33.6,0z"/>
				</g>
			</g>
			<g id="Polígono_20" transform="translate(111.81 6.143) rotate(90)">
				<g>
					<path class="st2" d="M86.8,0C89,0,91,1.2,92,3l26.7,46.5c1.1,1.8,1.1,4.1,0,6L92,102c-1.1,1.9-3.1,3-5.2,3H33.6
						c-2.2,0-4.1-1.2-5.2-3L1.7,55.5c-1.1-1.8-1.1-4.1,0-6L28.4,3c1.1-1.9,3.1-3,5.2-3H86.8z"/>
				</g>
				<g>
					<path class="st3" d="M33.6,3c-1.1,0-2.1,0.6-2.6,1.5L4.3,51c-0.5,0.9-0.5,2.1,0,3L31,100.5c0.5,0.9,1.5,1.5,2.6,1.5h53.3
						c1.1,0,2.1-0.6,2.6-1.5L116.1,54c0.5-0.9,0.5-2.1,0-3L89.4,4.5C88.9,3.6,87.9,3,86.8,3H33.6 M33.6,0h53.3C89,0,91,1.2,92,3
						l26.7,46.5c1.1,1.8,1.1,4.1,0,6L92,102c-1.1,1.9-3.1,3-5.2,3H33.6c-2.2,0-4.1-1.2-5.2-3L1.7,55.5c-1.1-1.8-1.1-4.1,0-6L28.4,3
						C29.4,1.2,31.4,0,33.6,0z"/>
				</g>
			</g>
		</g>
		<g id="Grupo_2611" transform="translate(21.502 12.901)">
			<g id="Elipse_1">
				<ellipse class="st4" cx="38.4" cy="56.8" rx="38.4" ry="37.8"/>
			</g>
			<g id="Elipse_2">
				<ellipse class="st5" cx="38.4" cy="51.6" rx="38.4" ry="38.1"/>
			</g>
			<g class="st6">
				<path class="st7" d="M42.2,78.1H20.9V28.5h20.4c10.4,0,16.1,5.4,16.1,12.8c0,6-3.6,9.8-8.4,11.4c5.6,1,9.6,6.2,9.6,12
					C58.6,72.5,52.5,78.1,42.2,78.1z M39.9,36.5h-9.1V49h9.1c4.7,0,7.4-2.1,7.4-6.2C47.3,38.8,44.6,36.5,39.9,36.5z M40.6,56.6h-9.8
					V70h10c4.8,0,7.7-2.3,7.7-6.5C48.5,59.2,45.4,56.6,40.6,56.6z"/>
			</g>
			<g class="st6">
				<path class="st3" d="M42.2,75H20.9V25.4h20.4c10.4,0,16.1,5.4,16.1,12.8c0,6-3.6,9.8-8.4,11.4c5.6,1,9.6,6.2,9.6,12
					C58.6,69.5,52.5,75,42.2,75z M39.9,33.5h-9.1v12.4h9.1c4.7,0,7.4-2.1,7.4-6.2C47.3,35.7,44.6,33.5,39.9,33.5z M40.6,53.6h-9.8
					v13.3h10c4.8,0,7.7-2.3,7.7-6.5C48.5,56.1,45.4,53.6,40.6,53.6z"/>
			</g>
		</g>
	</g>
	<g id="Caminho_44">
		<path class="st0" d="M2141.3-457.9l-87.1-50.9l0-103.3l87.1-51.8l88.9,51.8v103.3L2141.3-457.9z M2058.1-511.1l83.2,48.6
			l84.9-48.6v-98.7l-84.9-49.5l-83.2,49.5L2058.1-511.1z"/>
	</g>
</g>
</svg>
