<svg xmlns="http://www.w3.org/2000/svg" width="198.439" height="228.37" viewBox="0 0 198.439 228.37">
  <g id="Grupo_4122" data-name="Grupo 4122" transform="translate(-2042.955 675.064)">
    <path id="Caminho_3341" data-name="Caminho 3341" d="M1927.939,224.558l85.14,49.758L2100,224.558V123.587L2013.08,72.953l-85.14,50.635Z" transform="translate(128.203 -734.509)" fill="none" stroke="#9b54d4" stroke-width="4"/>
    <g id="Grupo_2923" data-name="Grupo 2923" transform="translate(2083.282 -627.149)">
      <g id="Grupo_2610" data-name="Grupo 2610" transform="translate(0 0)">
        <path id="Polígono_14" data-name="Polígono 14" d="M96,0a6,6,0,0,1,5.236,3.07l29.817,53.284a6,6,0,0,1,0,5.86L101.241,115.5A6,6,0,0,1,96,118.567H36.692a6,6,0,0,1-5.236-3.07L1.64,62.214a6,6,0,0,1,0-5.86L31.456,3.07A6,6,0,0,1,36.692,0Z" transform="translate(118.568 0) rotate(90)" fill="#ffa700"/>
        <path id="Polígono_18" data-name="Polígono 18" d="M78.563,0A6,6,0,0,1,83.75,2.983l23.848,41a6,6,0,0,1,0,6.034l-23.848,41a6,6,0,0,1-5.186,2.983H30.789A6,6,0,0,1,25.6,91.011l-23.848-41a6,6,0,0,1,0-6.034l23.848-41A6,6,0,0,1,30.789,0Z" transform="translate(106.281 11.672) rotate(90)" fill="#ffa700"/>
        <g id="Polígono_19" data-name="Polígono 19" transform="translate(111.81 6.143) rotate(90)" fill="none">
          <path d="M86.831,0a6,6,0,0,1,5.206,3.017L118.7,49.543a6,6,0,0,1,0,5.967L92.037,102.035a6,6,0,0,1-5.206,3.017H33.58a6,6,0,0,1-5.206-3.017L1.71,55.509a6,6,0,0,1,0-5.967L28.374,3.017A6,6,0,0,1,33.58,0Z" stroke="none"/>
          <path d="M 33.57952117919922 1.000007629394531 C 31.79233551025391 1.000007629394531 30.13008880615234 1.963249206542969 29.24142456054688 3.513832092285156 L 2.577392578125 50.03986740112305 C 1.698532104492188 51.57339096069336 1.698532104492188 53.4786491394043 2.577392578125 55.01217269897461 L 29.24140930175781 101.5381927490234 C 30.13005828857422 103.0887908935547 31.79233551025391 104.0520324707031 33.57952117919922 104.0520324707031 L 86.83099365234375 104.0520324707031 C 88.61819458007812 104.0520324707031 90.28044128417969 103.0887908935547 91.16909027099609 101.5381927490234 L 117.833122253418 55.01217269897461 C 118.7119827270508 53.4786491394043 118.7119827270508 51.57339096069336 117.833122253418 50.03986740112305 L 91.16909027099609 3.513832092285156 C 90.28044128417969 1.963249206542969 88.61817932128906 1.000007629394531 86.83099365234375 1.000007629394531 L 33.57952117919922 1.000007629394531 M 33.57952117919922 7.62939453125e-06 L 86.83099365234375 7.62939453125e-06 C 88.9814453125 7.62939453125e-06 90.96743774414062 1.150848388671875 92.03670501708984 3.0166015625 L 118.7007369995117 49.54263687133789 C 119.7597961425781 51.39057540893555 119.7597961425781 53.66146469116211 118.7007369995117 55.50940322875977 L 92.03670501708984 102.0354232788086 C 90.96743774414062 103.9011917114258 88.9814453125 105.0520324707031 86.83099365234375 105.0520324707031 L 33.57952117919922 105.0520324707031 C 31.42906951904297 105.0520324707031 29.44306945800781 103.9011917114258 28.37379455566406 102.0354232788086 L 1.70977783203125 55.50940322875977 C 0.6507186889648438 53.66146469116211 0.6507186889648438 51.39057540893555 1.70977783203125 49.54263687133789 L 28.37380981445312 3.0166015625 C 29.44308471679688 1.150848388671875 31.42908477783203 7.62939453125e-06 33.57952117919922 7.62939453125e-06 Z" stroke="none" fill="#fda729"/>
        </g>
        <g id="Polígono_20" data-name="Polígono 20" transform="translate(111.81 6.143) rotate(90)" fill="none">
          <path d="M86.831,0a6,6,0,0,1,5.206,3.017L118.7,49.543a6,6,0,0,1,0,5.967L92.037,102.035a6,6,0,0,1-5.206,3.017H33.58a6,6,0,0,1-5.206-3.017L1.71,55.509a6,6,0,0,1,0-5.967L28.374,3.017A6,6,0,0,1,33.58,0Z" stroke="none"/>
          <path d="M 33.57951354980469 3 C 32.5072021484375 3 31.50985717773438 3.577949523925781 30.97667694091797 4.508293151855469 L 4.3126220703125 51.03429412841797 C 3.785308837890625 51.95441818237305 3.785308837890625 53.09760284423828 4.3126220703125 54.0177116394043 L 30.97665405273438 100.5437316894531 C 31.50984191894531 101.4740905761719 32.5072021484375 102.0520401000977 33.57951354980469 102.0520401000977 L 86.83098602294922 102.0520401000977 C 87.90331268310547 102.0520401000977 88.90067291259766 101.4740905761719 89.43385314941406 100.5437316894531 L 116.0978927612305 54.01769256591797 C 116.6252059936523 53.09760284423828 116.6252059936523 51.95443725585938 116.0978775024414 51.03432846069336 L 89.43385314941406 4.508293151855469 C 88.90067291259766 3.577949523925781 87.90331268310547 3 86.83100128173828 3 L 33.57951354980469 3 M 33.57951354980469 0 L 86.83100128173828 0 C 88.98143768310547 0 90.96743774414062 1.150840759277344 92.03671264648438 3.0166015625 L 118.7007293701172 49.54263687133789 C 119.7598037719727 51.39058303833008 119.7598037719727 53.66145706176758 118.7007293701172 55.50940322875977 L 92.03671264648438 102.0354232788086 C 90.96743774414062 103.9011840820312 88.98143768310547 105.0520401000977 86.83098602294922 105.0520401000977 L 33.57951354980469 105.0520401000977 C 31.4290771484375 105.0520401000977 29.44307708740234 103.9011840820312 28.37380218505859 102.0354232788086 L 1.709770202636719 55.50940322875977 C 0.6507110595703125 53.66145706176758 0.6507110595703125 51.39058303833008 1.709770202636719 49.54262161254883 L 28.37381744384766 3.0166015625 C 29.44307708740234 1.150840759277344 31.4290771484375 0 33.57951354980469 0 Z" stroke="none" fill="#fda729"/>
        </g>
      </g>
      <g id="Grupo_2611" data-name="Grupo 2611" transform="translate(21.502 12.901)">
        <ellipse id="Elipse_1" data-name="Elipse 1" cx="38.396" cy="37.782" rx="38.396" ry="37.782" transform="translate(0 19.045)" fill="#243365"/>
        <ellipse id="Elipse_2" data-name="Elipse 2" cx="38.396" cy="38.089" rx="38.396" ry="38.089" transform="translate(0 13.515)" fill="#324174"/>
        <text id="B" transform="translate(15.973 78.072)" fill="#d58b1f" font-size="71" font-family="Poppins-SemiBold, Poppins" font-weight="600"><tspan x="0" y="0">B</tspan></text>
        <text id="B-2" data-name="B" transform="translate(15.973 75)" fill="#fda729" font-size="71" font-family="Poppins-SemiBold, Poppins" font-weight="600"><tspan x="0" y="0">B</tspan></text>
      </g>
    </g>
    <path id="Caminho_44" data-name="Caminho 44" d="M1927.939,224.558l85.14,49.758L2100,224.558V123.587L2013.08,72.953l-85.14,50.635Z" transform="translate(128.203 -734.509)" fill="none" stroke="#9b54d4" stroke-width="4"/>
  </g>
</svg>
