<svg id="Grupo_80" data-name="Grupo 80" xmlns="http://www.w3.org/2000/svg" xmlns:xlink="http://www.w3.org/1999/xlink" width="133.894" height="200" viewBox="0 0 133.894 200">
  <defs>
    <clipPath id="clip-path">
      <rect id="Retângulo_85" data-name="Retângulo 85" width="133.894" height="200" fill="none"/>
    </clipPath>
  </defs>
  <g id="Grupo_79" data-name="Grupo 79" clip-path="url(#clip-path)">
    <path id="Caminho_306" data-name="Caminho 306" d="M108.14,85.6l25.751-51.332c.185-7.6-13.475-28.308-27.747-34.187L73.558.023V0L66.947.012,60.335,0V.023L27.749.078C13.477,5.957-.184,26.663,0,34.265L25.753,85.6a64.618,64.618,0,1,0,82.387,0M60.335,8.381h42.9L96.865,27.933H37.028L30.662,8.381Zm33.8,27.933L82.322,72.61a64.953,64.953,0,0,0-30.752,0l-11.815-36.3H94.138ZM10.151,30.57c-.091-3.7,5.467-12.684,12.413-15.48L46.114,74.2A64.306,64.306,0,0,0,32.29,80.837ZM98.925,151.631a4.3,4.3,0,0,1,0,6.087l-9.141,9.141a4.29,4.29,0,0,1-6.082,0L66.948,150.107,50.2,166.859a4.3,4.3,0,0,1-6.087,0l-9.141-9.141a4.3,4.3,0,0,1,0-6.087l16.75-16.751L34.97,118.133a4.3,4.3,0,0,1,0-6.088l9.141-9.14a4.3,4.3,0,0,1,6.087,0l16.75,16.748L83.7,102.9a4.3,4.3,0,0,1,6.087,0l9.141,9.14a4.293,4.293,0,0,1,0,6.082L82.174,134.88ZM87.78,74.2,111.329,15.09c6.946,2.8,12.5,11.783,12.414,15.48L101.6,80.837A64.307,64.307,0,0,0,87.78,74.2" transform="translate(0)" fill="#fff"/>
  </g>
</svg>
