<svg id="Grupo_78" data-name="Grupo 78" xmlns="http://www.w3.org/2000/svg" xmlns:xlink="http://www.w3.org/1999/xlink" width="133.894" height="200" viewBox="0 0 133.894 200">
  <defs>
    <clipPath id="clip-path">
      <rect id="Retângulo_84" data-name="Retângulo 84" width="133.894" height="200" fill="none"/>
    </clipPath>
  </defs>
  <g id="Grupo_77" data-name="Grupo 77" clip-path="url(#clip-path)">
    <path id="Caminho_305" data-name="Caminho 305" d="M108.142,85.6l25.75-51.332c.185-7.6-13.475-28.308-27.746-34.187L73.558.023V0L66.947.012,60.335,0V.023L27.749.078C13.477,5.957-.184,26.663,0,34.265L25.753,85.6a64.618,64.618,0,1,0,82.389,0M60.335,8.381h42.9L96.865,27.933H37.028L30.662,8.381Zm33.8,27.933L82.323,72.61a64.953,64.953,0,0,0-30.752,0l-11.815-36.3H94.138ZM10.151,30.57c-.091-3.7,5.467-12.684,12.413-15.48L46.114,74.2A64.306,64.306,0,0,0,32.29,80.837ZM99.841,112.3,64.357,164.632a5.585,5.585,0,0,1-4.383,2.6,7.068,7.068,0,0,1-4.651-2.066L34.5,144.335a3.644,3.644,0,0,1,0-5.15l5.141-5.151a3.66,3.66,0,0,1,5.14,0l13.548,13.548,29.468-43.465a3.658,3.658,0,0,1,5.055-.956l6.02,4.086a3.646,3.646,0,0,1,.972,5.05M87.78,74.2,111.329,15.09c6.946,2.8,12.5,11.783,12.414,15.48L101.6,80.837A64.306,64.306,0,0,0,87.78,74.2" transform="translate(0)" fill="#fff"/>
  </g>
</svg>
