<?xml version="1.0" encoding="utf-8"?>
<!-- Generator: Adobe Illustrator 26.1.0, SVG Export Plug-In . SVG Version: 6.00 Build 0)  -->
<svg version="1.1" id="Camada_1" xmlns="http://www.w3.org/2000/svg" xmlns:xlink="http://www.w3.org/1999/xlink" x="0px" y="0px"
	 viewBox="0 0 82.7 15.2" style="enable-background:new 0 0 82.7 15.2;" xml:space="preserve">
<style type="text/css">
	.st0{enable-background:new    ;}
	.st1{fill:#08F1DC;}
</style>
<g class="st0">
	<path class="st1" d="M28.2,11.5h-4.5L23,13.6h-3.7l4.6-12.7H28l4.6,12.7h-3.7L28.2,11.5z M25.9,4.7l-1.4,4.1h2.7L25.9,4.7z"/>
	<path class="st1" d="M38.6,0.9h3.5v8.4c0,2.9-1.7,4.4-4.4,4.4c-2.8,0-4.7-1.6-4.7-4.7h3.5c0,1.1,0.4,1.5,1.1,1.5c0.6,0,1-0.3,1-1.2
		V0.9z"/>
	<path class="st1" d="M44.2,0.9h3.5v7.4c0,1.3,0.6,2.1,1.9,2.1s2-0.8,2-2.1V0.9h3.5v7.4c0,3.6-2.5,5.5-5.6,5.5s-5.4-1.8-5.4-5.5
		L44.2,0.9L44.2,0.9z"/>
	<path class="st1" d="M68.7,7.2c0,3.7-2.6,6.4-6.6,6.4h-5V0.9h5C66.1,0.9,68.7,3.5,68.7,7.2z M61.8,10.5c2,0,3.3-1.2,3.3-3.2
		c0-2.1-1.3-3.3-3.3-3.3h-1.2v6.5H61.8z"/>
	<path class="st1" d="M78.3,11.5h-4.5l-0.7,2.1h-3.7L74,0.9h4.1l4.6,12.7H79L78.3,11.5z M76.1,4.7l-1.4,4.1h2.7L76.1,4.7z"/>
</g>
<g id="Polígono_3">
	<path class="st1" d="M12.9,5.8c1,0.5,1.3,1.8,0.8,2.7c-0.2,0.3-0.4,0.6-0.8,0.8L3,14.9c-1,0.5-2.2,0.2-2.7-0.8
		c-0.2-0.3-0.3-0.6-0.3-1V2c0-1.1,0.9-2,2-2c0.3,0,0.7,0.1,1,0.3L12.9,5.8z"/>
</g>
</svg>
