<?xml version="1.0" encoding="utf-8"?>
<!-- Generator: Adobe Illustrator 26.1.0, SVG Export Plug-In . SVG Version: 6.00 Build 0)  -->
<svg version="1.1" id="Camada_1" xmlns="http://www.w3.org/2000/svg" xmlns:xlink="http://www.w3.org/1999/xlink" x="0px" y="0px"
	 viewBox="0 0 82.7 15.2" style="enable-background:new 0 0 82.7 15.2;" xml:space="preserve">
<style type="text/css">
	.st0{enable-background:new    ;}
	.st1{fill:#F6A414;}
</style>
<g id="Grupo_4117" transform="translate(-1226 -48)">
	<g class="st0">
		<path class="st1" d="M1245.3,49h4.3l3.2,8.2l3.1-8.2h4.2v12.7h-3.5v-7l-2.4,7h-3l-2.4-7.1v7.1h-3.5V49z"/>
		<path class="st1" d="M1270.3,51.8h-4.6v2.1h4.1v2.7h-4.1v2.3h4.6v2.8h-8.1V49h8.1V51.8z"/>
		<path class="st1" d="M1283.8,49v12.7h-3.5l-4.7-7.1v7.1h-3.5V49h3.5l4.7,7.2V49H1283.8z"/>
		<path class="st1" d="M1285.7,49h3.5v7.4c0,1.3,0.6,2.1,1.9,2.1c1.3,0,2-0.8,2-2.1V49h3.5v7.4c0,3.6-2.5,5.5-5.6,5.5
			c-3.1,0-5.4-1.8-5.4-5.5V49z"/>
	</g>
	<g id="Polígono_4">
		<path class="st1" d="M1238.9,53.8c1,0.5,1.3,1.8,0.8,2.7c-0.2,0.3-0.4,0.6-0.8,0.8l-9.9,5.6c-1,0.5-2.2,0.2-2.7-0.8
			c-0.2-0.3-0.3-0.6-0.3-1V50c0-1.1,0.9-2,2-2c0.3,0,0.7,0.1,1,0.3L1238.9,53.8z"/>
	</g>
</g>
</svg>
