<?xml version="1.0" encoding="utf-8"?>
<!-- Generator: Adobe Illustrator 26.1.0, SVG Export Plug-In . SVG Version: 6.00 Build 0)  -->
<svg version="1.1" id="Camada_1" xmlns="http://www.w3.org/2000/svg" xmlns:xlink="http://www.w3.org/1999/xlink" x="0px" y="0px"
	 viewBox="0 0 189.7 145.2" style="enable-background:new 0 0 189.7 145.2;" xml:space="preserve">
<style type="text/css">
	.st0{fill:#FFA700;}
	.st1{enable-background:new    ;}
	.st2{fill:#FFFFFF;}
</style>
<g>
	<g id="Grupo_1_00000163761676489785386230000005432449460600646569_" transform="translate(880.306 687.17) rotate(180)">
		<path class="st0" d="M785.5,543.8c-0.2,0-0.9,0.1-1.3,0.7L692.7,683c-0.5,0.7-0.2,1.3-0.1,1.6c0.1,0.2,0.5,0.8,1.3,0.8H877
			c0.8,0,1.2-0.6,1.3-0.8c0.1-0.2,0.4-0.9-0.1-1.6l-91.5-138.5C786.3,543.9,785.7,543.8,785.5,543.8 M785.5,542
			c1.1,0,2.1,0.5,2.8,1.5L879.7,682c1.5,2.2-0.1,5.2-2.8,5.2H694c-2.7,0-4.3-3-2.8-5.2l91.5-138.5C783.3,542.5,784.4,542,785.5,542z
			"/>
		<polygon class="st0" points="693,686.2 878,686.2 879.3,683.5 787.3,544.5 784.5,543 692.2,683 		"/>
	</g>
	<g class="st1">
		<path class="st2" d="M61.1,68.1h3.5v12.4h-3.5V68.1z"/>
		<path class="st2" d="M78.1,68.1v12.4h-3.5l-4.6-7v7h-3.5V68.1H70l4.6,7v-7H78.1z"/>
		<path class="st2" d="M80,68.1h3.5v12.4H80V68.1z"/>
		<path class="st2" d="M91.3,67.9c3.1,0,5.3,1.8,6,4.6h-3.7c-0.4-0.9-1.3-1.4-2.3-1.4c-1.6,0-2.6,1.2-2.6,3.1c0,1.9,1,3.2,2.6,3.2
			c1,0,1.9-0.5,2.3-1.4h3.7c-0.6,2.8-2.8,4.6-6,4.6c-3.7,0-6.2-2.6-6.2-6.3C85.1,70.6,87.5,67.9,91.3,67.9z"/>
		<path class="st2" d="M98.9,68.1h3.5v12.4h-3.5V68.1z"/>
		<path class="st2" d="M112.2,78.5h-4.4l-0.7,2h-3.6l4.5-12.4h4l4.5,12.4h-3.7L112.2,78.5z M110,71.8l-1.3,4h2.7L110,71.8z"/>
		<path class="st2" d="M123.1,68.1c3.1,0,4.6,1.8,4.6,4c0,1.6-0.9,3-2.7,3.6l2.8,4.9h-3.9l-2.5-4.6h-0.4v4.6h-3.5V68.1H123.1z
			 M122.8,71h-1.7v2.6h1.7c0.9,0,1.4-0.5,1.4-1.3C124.2,71.5,123.7,71,122.8,71z"/>
	</g>
	<path id="Polígono_4_00000115506395127957416050000010712600101222886312_" class="st2" d="M119.7,29.7c2.7,1.5,3.7,5,2.2,7.7
		c-0.5,0.9-1.3,1.7-2.2,2.2l-32.2,18c-2.7,1.5-6.2,0.5-7.7-2.2c-0.5-0.8-0.7-1.8-0.7-2.8V16.7c0-3.1,2.5-5.7,5.7-5.7
		c1,0,1.9,0.2,2.8,0.7L119.7,29.7z"/>
</g>
</svg>
