<?xml version="1.0" encoding="utf-8"?>
<!-- Generator: Adobe Illustrator 26.1.0, SVG Export Plug-In . SVG Version: 6.00 Build 0)  -->
<svg version="1.1" id="Camada_1" xmlns="http://www.w3.org/2000/svg" xmlns:xlink="http://www.w3.org/1999/xlink" x="0px" y="0px"
	 viewBox="0 0 156.4 148" style="enable-background:new 0 0 156.4 148;" xml:space="preserve">
<style type="text/css">
	.st0{fill:#6EFEEA;}
	.st1{fill:#FFA700;}
	.st2{fill:none;}
	.st3{fill:#FDA729;}
	.st4{fill:#243365;}
	.st5{fill:#324174;}
	.st6{enable-background:new    ;}
	.st7{fill:#D58B1F;}
</style>
<g id="Grupo_4118" transform="translate(-247.599 -303)">
	<g id="Polígono_7">
		<path class="st0" d="M380.7,363.9c7.2,4.1,9.8,13.2,5.7,20.4c-1.4,2.4-3.3,4.4-5.7,5.7l-86.3,48.4c-7.2,4.1-16.4,1.5-20.4-5.7
			c-1.3-2.2-1.9-4.8-1.9-7.3v-96.8c0-8.3,6.7-15,15-15c2.6,0,5.1,0.7,7.3,1.9L380.7,363.9z"/>
	</g>
	<g id="Grupo_2615" transform="translate(2125 293)">
		<g id="Grupo_2610" transform="translate(0 0.5)">
			<g id="Polígono_14">
				<path class="st1" d="M-1787,105c0,2.2-1.2,4.2-3.1,5.2l-38.5,21.6c-1.8,1-4.1,1-5.9,0l-38.5-21.6c-1.9-1.1-3.1-3.1-3.1-5.2V62
					c0-2.2,1.2-4.2,3.1-5.2l38.5-21.6c1.8-1,4.1-1,5.9,0l38.5,21.6c1.9,1.1,3.1,3.1,3.1,5.2V105z"/>
			</g>
			<g id="Polígono_18">
				<path class="st1" d="M-1796,100.5c0,2.1-1.1,4.1-3,5.2l-29.5,17c-1.9,1.1-4.1,1.1-6,0l-29.5-17c-1.9-1.1-3-3.1-3-5.2V66.5
					c0-2.1,1.1-4.1,3-5.2l29.5-17c1.9-1.1,4.1-1.1,6,0l29.5,17c1.9,1.1,3,3.1,3,5.2V100.5z"/>
			</g>
			<g id="Polígono_19" transform="translate(-1792 38.5) rotate(90)">
				<g>
					<path class="st2" d="M64,0c2.2,0,4.1,1.2,5.2,3l19.1,33.5c1,1.8,1,4.1,0,5.9L69.2,76c-1.1,1.9-3.1,3-5.2,3H26
						c-2.2,0-4.1-1.2-5.2-3L1.7,42.5c-1-1.8-1-4.1,0-5.9L20.8,3c1.1-1.9,3.1-3,5.2-3H64z"/>
				</g>
				<g>
					<path class="st3" d="M26,1c-1.8,0-3.5,1-4.3,2.5L2.6,37c-0.9,1.5-0.9,3.4,0,4.9l19.1,33.5C22.5,77,24.2,78,26,78h38
						c1.8,0,3.5-1,4.3-2.5L87.4,42c0.9-1.5,0.9-3.4,0-4.9L68.4,3.5C67.5,2,65.8,1,64,1H26 M26,0h38c2.2,0,4.1,1.2,5.2,3l19.1,33.5
						c1,1.8,1,4.1,0,5.9L69.2,76c-1.1,1.9-3.1,3-5.2,3H26c-2.2,0-4.1-1.2-5.2-3L1.7,42.5c-1-1.8-1-4.1,0-5.9L20.8,3
						C21.8,1.2,23.8,0,26,0z"/>
				</g>
			</g>
			<g id="Polígono_20" transform="translate(-1792 38.5) rotate(90)">
				<g>
					<path class="st2" d="M64,0c2.2,0,4.1,1.2,5.2,3l19.1,33.5c1,1.8,1,4.1,0,5.9L69.2,76c-1.1,1.9-3.1,3-5.2,3H26
						c-2.2,0-4.1-1.2-5.2-3L1.7,42.5c-1-1.8-1-4.1,0-5.9L20.8,3c1.1-1.9,3.1-3,5.2-3H64z"/>
				</g>
				<g>
					<path class="st3" d="M26,3c-1.1,0-2.1,0.6-2.6,1.5L4.3,38c-0.5,0.9-0.5,2.1,0,3l19.1,33.5c0.5,0.9,1.5,1.5,2.6,1.5h38
						c1.1,0,2.1-0.6,2.6-1.5L85.7,41c0.5-0.9,0.5-2.1,0-3L66.6,4.5C66.1,3.6,65.1,3,64,3H26 M26,0h38c2.2,0,4.1,1.2,5.2,3l19.1,33.5
						c1,1.8,1,4.1,0,5.9L69.2,76c-1.1,1.9-3.1,3-5.2,3H26c-2.2,0-4.1-1.2-5.2-3L1.7,42.5c-1-1.8-1-4.1,0-5.9L20.8,3
						C21.8,1.2,23.8,0,26,0z"/>
				</g>
			</g>
		</g>
		<g id="Grupo_2611" transform="translate(-87.554 -68.976)">
			<g id="Elipse_1">
				<ellipse class="st4" cx="-1743.4" cy="155.5" rx="29" ry="28.5"/>
			</g>
			<g id="Elipse_2">
				<ellipse class="st5" cx="-1743.4" cy="151.5" rx="29" ry="28.5"/>
			</g>
			<g class="st6">
				<path class="st7" d="M-1740.1,173h-16.6v-38.4h15.8c8,0,12.5,4.2,12.5,9.9c0,4.7-2.8,7.6-6.5,8.8c4.3,0.8,7.4,4.8,7.4,9.3
					C-1727.5,168.7-1732.1,173-1740.1,173z M-1741.9,140.8h-7v9.6h7c3.6,0,5.7-1.7,5.7-4.8C-1736.2,142.6-1738.3,140.8-1741.9,140.8
					z M-1741.4,156.4h-7.6v10.3h7.8c3.7,0,5.9-1.8,5.9-5.1C-1735.3,158.3-1737.6,156.4-1741.4,156.4z"/>
			</g>
			<g class="st6">
				<path class="st3" d="M-1740.1,171h-16.6v-38.4h15.8c8,0,12.5,4.2,12.5,9.9c0,4.7-2.8,7.6-6.5,8.8c4.3,0.8,7.4,4.8,7.4,9.3
					C-1727.5,166.7-1732.1,171-1740.1,171z M-1741.9,138.8h-7v9.6h7c3.6,0,5.7-1.7,5.7-4.8C-1736.2,140.6-1738.3,138.8-1741.9,138.8
					z M-1741.4,154.4h-7.6v10.3h7.8c3.7,0,5.9-1.8,5.9-5.1C-1735.3,156.3-1737.6,154.4-1741.4,154.4z"/>
			</g>
		</g>
	</g>
</g>
</svg>
