<svg xmlns="http://www.w3.org/2000/svg" width="156.401" height="148" viewBox="0 0 156.401 148">
  <g id="Grupo_4118" data-name="Grupo 4118" transform="translate(-247.599 -303)">
    <path id="Polígono_7" data-name="Polígono 7" d="M60.916,23.339a15,15,0,0,1,26.168,0l48.395,86.326A15,15,0,0,1,122.395,132H25.605a15,15,0,0,1-13.084-22.335Z" transform="translate(404 303) rotate(90)" fill="#6efeea"/>
    <g id="Grupo_2615" data-name="Grupo 2615" transform="translate(2125 293)">
      <g id="Grupo_2610" data-name="Grupo 2610" transform="translate(0 0.5)">
        <path id="Polígono_14" data-name="Polígono 14" d="M71.489,0A6,6,0,0,1,76.72,3.061l21.629,38.5a6,6,0,0,1,0,5.878L76.72,85.939A6,6,0,0,1,71.489,89H28.511a6,6,0,0,1-5.231-3.061L1.651,47.439a6,6,0,0,1,0-5.878L23.28,3.061A6,6,0,0,1,28.511,0Z" transform="translate(-1787 33.5) rotate(90)" fill="#ffa700"/>
        <path id="Polígono_18" data-name="Polígono 18" d="M58.036,0a6,6,0,0,1,5.2,3L80.267,32.5a6,6,0,0,1,0,6L63.232,68a6,6,0,0,1-5.2,3H23.964a6,6,0,0,1-5.2-3L1.733,38.5a6,6,0,0,1,0-6L18.768,3a6,6,0,0,1,5.2-3Z" transform="translate(-1796 42.5) rotate(90)" fill="#ffa700"/>
        <g id="Polígono_19" data-name="Polígono 19" transform="translate(-1792 38.5) rotate(90)" fill="none">
          <path d="M64.013,0a6,6,0,0,1,5.214,3.03l19.082,33.5a6,6,0,0,1,0,5.939L69.226,75.97A6,6,0,0,1,64.013,79H25.987a6,6,0,0,1-5.214-3.03L1.692,42.47a6,6,0,0,1,0-5.939L20.774,3.03A6,6,0,0,1,25.987,0Z" stroke="none"/>
          <path d="M 25.98741912841797 1 C 24.19481658935547 1 22.53006744384766 1.967613220214844 21.642822265625 3.525222778320312 L 2.560523986816406 37.02522277832031 C 1.691009521484375 38.55171585083008 1.691009521484375 40.44826889038086 2.560523986816406 41.97476577758789 L 21.64280700683594 75.47476196289062 C 22.53006744384766 77.03238677978516 24.19481658935547 78 25.98741149902344 78 L 64.01258850097656 78 C 65.80517578125 78 67.46994018554688 77.03238677978516 68.35719299316406 75.47477722167969 L 87.43946838378906 41.97476577758789 C 88.30897521972656 40.44826889038086 88.30897521972656 38.55173110961914 87.43946838378906 37.02523422241211 L 68.35719299316406 3.525222778320312 C 67.46994018554688 1.967613220214844 65.80518341064453 1 64.01258850097656 1 L 25.98741912841797 1 M 25.98741912841797 0 L 64.01258850097656 0 C 66.16867065429688 0 68.15895080566406 1.156822204589844 69.22611236572266 3.0302734375 L 88.30838775634766 36.53028106689453 C 89.35701751708984 38.37123489379883 89.35701751708984 40.62876510620117 88.30838775634766 42.46971893310547 L 69.22611236572266 75.9697265625 C 68.15895080566406 77.84316253662109 66.16867065429688 79 64.01258850097656 79 L 25.98741149902344 79 C 23.83133697509766 79 21.84104156494141 77.84316253662109 20.77388763427734 75.96971893310547 L 1.691604614257812 42.46971893310547 C 0.6429595947265625 40.62876510620117 0.6429595947265625 38.37123489379883 1.691604614257812 36.53026962280273 L 20.77390289306641 3.0302734375 C 21.84105682373047 1.156822204589844 23.83135223388672 0 25.98741912841797 0 Z" stroke="none" fill="#fda729"/>
        </g>
        <g id="Polígono_20" data-name="Polígono 20" transform="translate(-1792 38.5) rotate(90)" fill="none">
          <path d="M64.013,0a6,6,0,0,1,5.214,3.03l19.082,33.5a6,6,0,0,1,0,5.939L69.226,75.97A6,6,0,0,1,64.013,79H25.987a6,6,0,0,1-5.214-3.03L1.692,42.47a6,6,0,0,1,0-5.939L20.774,3.03A6,6,0,0,1,25.987,0Z" stroke="none"/>
          <path d="M 25.9874267578125 3 C 24.911865234375 3 23.91300964355469 3.580574035644531 23.38065338134766 4.515129089355469 L 4.298370361328125 38.01512908935547 C 3.776657104492188 38.9310302734375 3.776657104492188 40.0689582824707 4.298370361328125 40.98485565185547 L 23.38063812255859 74.48485565185547 C 23.91299438476562 75.41942596435547 24.91184234619141 76 25.98739624023438 76 L 64.01258087158203 76 C 65.088134765625 76 66.08699798583984 75.41942596435547 66.61935424804688 74.48487091064453 L 85.70162200927734 40.98487091064453 C 86.22334289550781 40.0689697265625 86.22334289550781 38.9310302734375 85.70162200927734 38.01512908935547 L 66.61935424804688 4.515144348144531 C 66.08699798583984 3.580574035644531 65.088134765625 3 64.01258087158203 3 L 25.9874267578125 3 M 25.9874267578125 0 L 64.01258087158203 0 C 66.16867065429688 0 68.15895080566406 1.156829833984375 69.22611236572266 3.0302734375 L 88.30838012695312 36.53026962280273 C 89.35702514648438 38.3712272644043 89.35702514648438 40.6287727355957 88.30838012695312 42.46973037719727 L 69.22611236572266 75.9697265625 C 68.15895080566406 77.84317016601562 66.16867065429688 79 64.01258087158203 79 L 25.98739624023438 79 C 23.83133697509766 79 21.84104156494141 77.84317016601562 20.77388000488281 75.96971130371094 L 1.691612243652344 42.4697151184082 C 0.6429672241210938 40.6287727355957 0.6429672241210938 38.3712272644043 1.691612243652344 36.53026962280273 L 20.77389526367188 3.0302734375 C 21.84105682373047 1.156829833984375 23.83133697509766 0 25.9874267578125 0 Z" stroke="none" fill="#fda729"/>
        </g>
      </g>
      <g id="Grupo_2611" data-name="Grupo 2611" transform="translate(-87.554 -68.976)">
        <ellipse id="Elipse_1" data-name="Elipse 1" cx="29" cy="28.5" rx="29" ry="28.5" transform="translate(-1772.446 126.976)" fill="#243365"/>
        <ellipse id="Elipse_2" data-name="Elipse 2" cx="29" cy="28.5" rx="29" ry="28.5" transform="translate(-1772.446 122.976)" fill="#324174"/>
        <text id="B" transform="translate(-1760.446 172.976)" fill="#d58b1f" font-size="55" font-family="Poppins-SemiBold, Poppins" font-weight="600"><tspan x="0" y="0">B</tspan></text>
        <text id="B-2" data-name="B" transform="translate(-1760.446 170.976)" fill="#fda729" font-size="55" font-family="Poppins-SemiBold, Poppins" font-weight="600"><tspan x="0" y="0">B</tspan></text>
      </g>
    </g>
  </g>
</svg>
