<svg xmlns="http://www.w3.org/2000/svg" width="74.312" height="57.967" viewBox="0 0 74.312 57.967">
  <g id="Caminho_4856" data-name="Caminho 4856" transform="translate(-4.362 -3.981)" fill="none">
    <path d="M37.364,6.2a5,5,0,0,1,8.307,0L77.819,54.164a5,5,0,0,1-4.153,7.784H9.37a5,5,0,0,1-4.153-7.784L29.11,18.513Z" stroke="none"/>
    <path d="M 41.51790237426758 10.77708435058594 L 11.24418640136719 55.94759750366211 L 71.79163360595703 55.94759750366211 L 41.51790237426758 10.77708435058594 M 41.51790237426758 3.980907440185547 C 43.09949493408203 3.980907440185547 44.68108749389648 4.719680786132812 45.67135238647461 6.197231292724609 L 77.81909942626953 54.16391372680664 C 80.04550170898438 57.48586273193359 77.66468811035156 61.94759750366211 73.66567230224609 61.94759750366211 L 9.370155334472656 61.94759750366211 C 5.371116638183594 61.94759750366211 2.990287780761719 57.48586273193359 5.216705322265625 54.16391372680664 C 5.216705322265625 54.16391372680664 21.07330322265625 30.50474548339844 29.11025238037109 18.51308059692383 C 37.14718627929688 6.521415710449219 37.36445236206055 6.197231292724609 37.36445236206055 6.197231292724609 C 38.35471725463867 4.719680786132812 39.93630981445312 3.980907440185547 41.51790237426758 3.980907440185547 Z" stroke="none" fill="#000"/>
  </g>
</svg>
