<svg xmlns="http://www.w3.org/2000/svg" width="1029.005" height="959.145" viewBox="0 0 1029.005 959.145">
  <g id="Grupo_1" data-name="Grupo 1" transform="translate(222.31 -248.87) rotate(30)">
    <g id="Polígono_1" data-name="Polígono 1" transform="translate(224.853 187.771)" fill="none" stroke-linejoin="round">
      <path d="M383.236,13.892a11,11,0,0,1,18.356,0L773.554,576.9a11,11,0,0,1-9.178,17.064H20.451A11,11,0,0,1,11.273,576.9Z" stroke="none"/>
      <path d="M 392.4136047363281 14.95538330078125 C 391.6050109863281 14.95538330078125 389.5797119140625 15.17401123046875 388.2417907714844 17.19921875 L 16.2794189453125 580.2084350585938 C 14.79278564453125 582.45849609375 15.6221923828125 584.5416870117188 16.0477294921875 585.3328857421875 C 16.47332763671875 586.1242065429688 17.75433349609375 587.9644775390625 20.45123291015625 587.9644775390625 L 764.3759765625 587.9644775390625 C 767.0728759765625 587.9644775390625 768.3538818359375 586.1242065429688 768.7794799804688 585.3328857421875 C 769.2050170898438 584.5416870117188 770.0343017578125 582.45849609375 768.5477294921875 580.2084350585938 L 396.5854187011719 17.19921875 C 395.2474060058594 15.17401123046875 393.2221984863281 14.95538330078125 392.4136047363281 14.95538330078125 M 392.41357421875 8.95538330078125 C 395.9153747558594 8.95538330078125 399.4172058105469 10.600830078125 401.5914916992188 13.89178466796875 L 773.5538330078125 576.9010009765625 C 778.3853759765625 584.2139892578125 773.1409301757812 593.9644775390625 764.3759765625 593.9644775390625 L 20.45123291015625 593.9644775390625 C 11.686279296875 593.9644775390625 6.44183349609375 584.2139892578125 11.2733154296875 576.9010009765625 L 383.2357177734375 13.89178466796875 C 385.4099426269531 10.600830078125 388.9117431640625 8.95538330078125 392.41357421875 8.95538330078125 Z" stroke="none" fill="#c734ff"/>
    </g>
    <g id="Polígono_2" data-name="Polígono 2" transform="translate(224.853 187.771)" fill="none" stroke-linejoin="round">
      <path d="M383.236,13.892a11,11,0,0,1,18.356,0L773.554,576.9a11,11,0,0,1-9.178,17.064H20.451A11,11,0,0,1,11.273,576.9Z" stroke="none"/>
      <path d="M 392.4136047363281 14.95538330078125 C 391.6050109863281 14.95538330078125 389.5797119140625 15.17401123046875 388.2417907714844 17.19921875 L 16.2794189453125 580.2084350585938 C 14.79278564453125 582.45849609375 15.6221923828125 584.5416870117188 16.0477294921875 585.3328857421875 C 16.47332763671875 586.1242065429688 17.75433349609375 587.9644775390625 20.45123291015625 587.9644775390625 L 764.3759765625 587.9644775390625 C 767.0728759765625 587.9644775390625 768.3538818359375 586.1242065429688 768.7794799804688 585.3328857421875 C 769.2050170898438 584.5416870117188 770.0343017578125 582.45849609375 768.5477294921875 580.2084350585938 L 396.5854187011719 17.19921875 C 395.2474060058594 15.17401123046875 393.2221984863281 14.95538330078125 392.4136047363281 14.95538330078125 M 392.41357421875 8.95538330078125 C 395.9153747558594 8.95538330078125 399.4172058105469 10.600830078125 401.5914916992188 13.89178466796875 L 773.5538330078125 576.9010009765625 C 778.3853759765625 584.2139892578125 773.1409301757812 593.9644775390625 764.3759765625 593.9644775390625 L 20.45123291015625 593.9644775390625 C 11.686279296875 593.9644775390625 6.44183349609375 584.2139892578125 11.2733154296875 576.9010009765625 L 383.2357177734375 13.89178466796875 C 385.4099426269531 10.600830078125 388.9117431640625 8.95538330078125 392.41357421875 8.95538330078125 Z" stroke="none" fill="#b900ff"/>
    </g>
  </g>
</svg>
