<?xml version="1.0" encoding="utf-8"?>
<!-- Generator: Adobe Illustrator 26.1.0, SVG Export Plug-In . SVG Version: 6.00 Build 0)  -->
<svg version="1.1" id="Camada_1" xmlns="http://www.w3.org/2000/svg" xmlns:xlink="http://www.w3.org/1999/xlink" x="0px" y="0px"
	 viewBox="0 0 532.3 566.4" style="enable-background:new 0 0 532.3 566.4;" xml:space="preserve">
<style type="text/css">
	.st0{fill:none;}
	.st1{fill:#C734FF;}
	.st2{fill:#B900FF;}
</style>
<g id="Grupo_1" transform="matrix(0.809, 0.588, -0.588, 0.809, 241.241, -256.712)">
	<g id="Polígono_1" transform="translate(224.853 187.771)">
		<path class="st0" d="M149.9-141.9c3.3-5.1,10.2-6.5,15.2-3.1c1.2,0.8,2.3,1.9,3.1,3.1l300.4,454.6c3.3,5.1,2,11.9-3.1,15.2
			c-1.8,1.2-3.9,1.8-6.1,1.8h-600.7c-6.1,0-11-4.9-11-11c0-2.2,0.6-4.3,1.8-6.1L149.9-141.9z"/>
		<path class="st1" d="M159.1-140.9c-0.8,0-2.8,0.2-4.2,2.2L-145.5,316c-1.5,2.3-0.7,4.3-0.2,5.1c0.4,0.8,1.7,2.6,4.4,2.6h600.7
			c2.7,0,4-1.8,4.4-2.6c0.4-0.8,1.3-2.9-0.2-5.1L163.2-138.6C161.9-140.7,159.9-140.9,159.1-140.9 M159.1-146.9c3.5,0,7,1.6,9.2,4.9
			l300.4,454.6c4.8,7.3-0.4,17.1-9.2,17.1h-600.7c-8.8,0-14-9.8-9.2-17.1l300.4-454.6C152.1-145.2,155.6-146.9,159.1-146.9z"/>
	</g>
	<g id="Polígono_2" transform="translate(224.853 187.771)">
		<path class="st0" d="M149.9-141.9c3.3-5.1,10.2-6.5,15.2-3.1c1.2,0.8,2.3,1.9,3.1,3.1l300.4,454.6c3.3,5.1,2,11.9-3.1,15.2
			c-1.8,1.2-3.9,1.8-6.1,1.8h-600.7c-6.1,0-11-4.9-11-11c0-2.2,0.6-4.3,1.8-6.1L149.9-141.9z"/>
		<path class="st2" d="M159.1-140.9c-0.8,0-2.8,0.2-4.2,2.2L-145.5,316c-1.5,2.3-0.7,4.3-0.2,5.1c0.4,0.8,1.7,2.6,4.4,2.6h600.7
			c2.7,0,4-1.8,4.4-2.6c0.4-0.8,1.3-2.9-0.2-5.1L163.2-138.6C161.9-140.7,159.9-140.9,159.1-140.9 M159.1-146.9c3.5,0,7,1.6,9.2,4.9
			l300.4,454.6c4.8,7.3-0.4,17.1-9.2,17.1h-600.7c-8.8,0-14-9.8-9.2-17.1l300.4-454.6C152.1-145.2,155.6-146.9,159.1-146.9z"/>
	</g>
</g>
</svg>
