<?xml version="1.0" encoding="utf-8"?>
<!-- Generator: Adobe Illustrator 26.1.0, SVG Export Plug-In . SVG Version: 6.00 Build 0)  -->
<svg version="1.1" id="Camada_1" xmlns="http://www.w3.org/2000/svg" xmlns:xlink="http://www.w3.org/1999/xlink" x="0px" y="0px"
	 viewBox="0 0 555.9 555.9" style="enable-background:new 0 0 555.9 555.9;" xml:space="preserve">
<style type="text/css">
	.st0{fill:none;}
	.st1{fill:#FFA700;}
</style>
<g id="Grupo_1" transform="translate(345.188 -263.719) rotate(45)">
	<path class="st0" d="M326.3,47c3.3-5.1,10.2-6.5,15.2-3.1c1.2,0.8,2.3,1.9,3.1,3.1L645,501.6c3.3,5.1,2,11.9-3.1,15.2
		c-1.8,1.2-3.9,1.8-6.1,1.8H35.1c-6.1,0-11-4.9-11-11c0-2.2,0.6-4.3,1.8-6.1L326.3,47z"/>
	<path class="st1" d="M335.5,48.1c-0.8,0-2.8,0.2-4.2,2.2L30.9,504.9c-1.5,2.3-0.7,4.3-0.2,5.1c0.4,0.8,1.7,2.6,4.4,2.6h600.7
		c2.7,0,4-1.8,4.4-2.6c0.4-0.8,1.3-2.9-0.2-5.1L339.6,50.3C338.3,48.3,336.3,48.1,335.5,48.1 M335.5,42.1c3.5,0,7,1.6,9.2,4.9
		L645,501.6c4.8,7.3-0.4,17.1-9.2,17.1H35.1c-8.8,0-14-9.8-9.2-17.1L326.3,47C328.4,43.7,332,42.1,335.5,42.1z"/>
	<path class="st0" d="M326.3,47c3.3-5.1,10.2-6.5,15.2-3.1c1.2,0.8,2.3,1.9,3.1,3.1L645,501.6c3.3,5.1,2,11.9-3.1,15.2
		c-1.8,1.2-3.9,1.8-6.1,1.8H35.1c-6.1,0-11-4.9-11-11c0-2.2,0.6-4.3,1.8-6.1L326.3,47z"/>
	<path class="st1" d="M335.5,48.1c-0.8,0-2.8,0.2-4.2,2.2L30.9,504.9c-1.5,2.3-0.7,4.3-0.2,5.1c0.4,0.8,1.7,2.6,4.4,2.6h600.7
		c2.7,0,4-1.8,4.4-2.6c0.4-0.8,1.3-2.9-0.2-5.1L339.6,50.3C338.3,48.3,336.3,48.1,335.5,48.1 M335.5,42.1c3.5,0,7,1.6,9.2,4.9
		L645,501.6c4.8,7.3-0.4,17.1-9.2,17.1H35.1c-8.8,0-14-9.8-9.2-17.1L326.3,47C328.4,43.7,332,42.1,335.5,42.1z"/>
</g>
</svg>
