<svg xmlns="http://www.w3.org/2000/svg" width="669.669" height="513.633" viewBox="0 0 669.669 513.633">
  <g id="Grupo_1" data-name="Grupo 1" transform="translate(880.306 687.17) rotate(180)">
    <g id="Polígono_1" data-name="Polígono 1" transform="translate(224.853 187.771)" fill="none" stroke-linejoin="round">
      <path d="M311.631,13.892a11,11,0,0,1,18.356,0L630.345,468.519a11,11,0,0,1-9.178,17.064H20.451a11,11,0,0,1-9.178-17.064Z" stroke="none"/>
      <path d="M 320.80908203125 14.95535278320312 C 320.00048828125 14.95535278320312 317.975341796875 15.17401123046875 316.6373291015625 17.19924926757812 L 16.2794189453125 471.8265075683594 C 14.7928466796875 474.0765991210938 15.6221923828125 476.1598510742188 16.0477294921875 476.9510192871094 C 16.47332763671875 477.7422485351562 17.75433349609375 479.5825805664062 20.45123291015625 479.5825805664062 L 621.1669921875 479.5825805664062 C 623.8638305664062 479.5825805664062 625.1448364257812 477.7422485351562 625.5704345703125 476.9510803222656 C 625.9959716796875 476.1598510742188 626.8253173828125 474.0765991210938 625.3387451171875 471.8265075683594 L 324.9809265136719 17.19918823242188 C 323.6429138183594 15.17401123046875 321.61767578125 14.95535278320312 320.80908203125 14.95535278320312 M 320.80908203125 8.955352783203125 C 324.3109130859375 8.955352783203125 327.812744140625 10.600830078125 329.9869995117188 13.891845703125 L 630.3448486328125 468.5191040039062 C 635.1763305664062 475.8320922851562 629.931884765625 485.5825805664062 621.1669921875 485.5825805664062 L 20.45123291015625 485.5825805664062 C 11.68621826171875 485.5825805664062 6.44183349609375 475.8320922851562 11.2733154296875 468.5191040039062 L 311.6312561035156 13.891845703125 C 313.8054504394531 10.600830078125 317.3072814941406 8.955352783203125 320.80908203125 8.955352783203125 Z" stroke="none" fill="#DD4EFF"/>
    </g>
    <g id="Polígono_2" data-name="Polígono 2" transform="translate(224.663 187.563)" fill="none" stroke-linejoin="round">
      <path d="M311.631,13.892a11,11,0,0,1,18.356,0L630.345,468.519a11,11,0,0,1-9.178,17.064H20.451a11,11,0,0,1-9.178-17.064Z" stroke="none"/>
      <path d="M 320.80908203125 14.95535278320312 C 320.00048828125 14.95535278320312 317.975341796875 15.17401123046875 316.6373291015625 17.19924926757812 L 16.2794189453125 471.8265075683594 C 14.7928466796875 474.0765991210938 15.6221923828125 476.1598510742188 16.0477294921875 476.9510192871094 C 16.47332763671875 477.7422485351562 17.75433349609375 479.5825805664062 20.45123291015625 479.5825805664062 L 621.1669921875 479.5825805664062 C 623.8638305664062 479.5825805664062 625.1448364257812 477.7422485351562 625.5704345703125 476.9510803222656 C 625.9959716796875 476.1598510742188 626.8253173828125 474.0765991210938 625.3387451171875 471.8265075683594 L 324.9809265136719 17.19918823242188 C 323.6429138183594 15.17401123046875 321.61767578125 14.95535278320312 320.80908203125 14.95535278320312 M 320.80908203125 8.955352783203125 C 324.3109130859375 8.955352783203125 327.812744140625 10.600830078125 329.9869995117188 13.891845703125 L 630.3448486328125 468.5191040039062 C 635.1763305664062 475.8320922851562 629.931884765625 485.5825805664062 621.1669921875 485.5825805664062 L 20.45123291015625 485.5825805664062 C 11.68621826171875 485.5825805664062 6.44183349609375 475.8320922851562 11.2733154296875 468.5191040039062 L 311.6312561035156 13.891845703125 C 313.8054504394531 10.600830078125 317.3072814941406 8.955352783203125 320.80908203125 8.955352783203125 Z" stroke="none" fill="#DD4EFF"/>
    </g>
  </g>
</svg>
