<?xml version="1.0" encoding="utf-8"?>
<!-- Generator: Adobe Illustrator 26.1.0, SVG Export Plug-In . SVG Version: 6.00 Build 0)  -->
<svg version="1.1" id="Camada_1" xmlns="http://www.w3.org/2000/svg" xmlns:xlink="http://www.w3.org/1999/xlink" x="0px" y="0px"
	 viewBox="0 0 240.6 41.9" style="enable-background:new 0 0 240.6 41.9;" xml:space="preserve">
<style type="text/css">
	.st0{enable-background:new    ;}
	.st1{fill:#8DCED0;}
</style>
<g id="Grupo_4120" transform="translate(-1058 -587)">
	<g id="Grupo_2614" transform="translate(172 16)">
		<g class="st0">
			<path class="st1" d="M941.8,582.2h8.2l-9.5,27.5h-9.8l-9.5-27.5h8.2l6.2,19.9L941.8,582.2z"/>
			<path class="st1" d="M969.7,605.2H960l-1.5,4.5h-8l10-27.5h8.8l10,27.5h-8.1L969.7,605.2z M964.8,590.5l-2.9,8.9h5.9L964.8,590.5
				z"/>
			<path class="st1" d="M981.8,582.2h9.2l6.9,17.9l6.7-17.9h9.2v27.5h-7.6v-15.2l-5.2,15.2h-6.4l-5.2-15.3v15.3h-7.6V582.2z"/>
			<path class="st1" d="M1031.4,610c-7.8,0-14.1-5.9-14.1-14.1s6.3-14.1,14.1-14.1c7.8,0,14.1,5.8,14.1,14.1S1039.2,610,1031.4,610z
				 M1031.4,602.9c3.9,0,6.3-2.8,6.3-7c0-4.3-2.4-7.1-6.3-7.1c-4,0-6.3,2.7-6.3,7.1C1025.1,600.1,1027.4,602.9,1031.4,602.9z"/>
			<path class="st1" d="M1059.3,610c-6.1,0-10.9-2.9-11.2-8.8h8.2c0.2,2.1,1.4,2.8,2.8,2.8c1.4,0,2.4-0.7,2.4-2
				c0-4.4-13.4-2.3-13.3-11.9c0-5.4,4.5-8.3,10.3-8.3c6.3,0,10.5,3.1,10.7,8.5h-8.3c-0.1-1.7-1.1-2.5-2.5-2.5c-1.1,0-2,0.6-2,2
				c0,4.1,13.2,2.8,13.2,11.6C1069.6,606.2,1065.8,610,1059.3,610z"/>
			<path class="st1" d="M1088.2,582.2v21.6h8.5v5.9h-16.2v-27.5H1088.2z"/>
			<path class="st1" d="M1117.1,605.2h-9.8l-1.5,4.5h-8l10-27.5h8.8l10,27.5h-8.1L1117.1,605.2z M1117,571v5.8l-9.8,3.8v-5.2
				L1117,571z M1112.2,590.5l-2.9,8.9h5.9L1112.2,590.5z"/>
		</g>
		<g id="Polígono_4">
			<path class="st1" d="M914.7,592.7c1.9,1.1,2.6,3.5,1.5,5.4c-0.4,0.6-0.9,1.2-1.5,1.5l-22.8,12.7c-1.9,1.1-4.4,0.4-5.4-1.5
				c-0.3-0.6-0.5-1.3-0.5-1.9v-25.4c0-2.2,1.8-4,4-4c0.7,0,1.4,0.2,1.9,0.5L914.7,592.7z"/>
		</g>
	</g>
</g>
</svg>
