<svg id="Blockchain_Academy" data-name="Blockchain Academy" xmlns="http://www.w3.org/2000/svg" xmlns:xlink="http://www.w3.org/1999/xlink" width="110" height="92" viewBox="0 0 110 92">
  <defs>
    <clipPath id="clip-path">
      <rect id="Ret칙ngulo_5" data-name="Ret칙ngulo 5" width="110" height="92" fill="#fff"/>
    </clipPath>
  </defs>
  <g id="Grupo_de_m치scara_5" data-name="Grupo de m치scara 5" clip-path="url(#clip-path)">
    <g id="Grupo_138" data-name="Grupo 138" transform="translate(14.508 14.894)">
      <g id="Grupo_221" data-name="Grupo 221" transform="translate(0 38.812)">
        <g id="Grupo_219" data-name="Grupo 219" transform="translate(14.813 18.067)">
          <path id="Caminho_157" data-name="Caminho 157" d="M162.791,432.012a1.622,1.622,0,0,1,1.322.616v-.554h.8v3.817h-.8v-.568a1.64,1.64,0,0,1-1.335.63,1.844,1.844,0,0,1-1.785-1.988A1.815,1.815,0,0,1,162.791,432.012Zm.166.686a1.17,1.17,0,0,0-1.155,1.268,1.2,1.2,0,0,0,1.155,1.3,1.292,1.292,0,0,0,0-2.57Z" transform="translate(-160.993 -430.765)" fill="#fff"/>
          <path id="Caminho_158" data-name="Caminho 158" d="M184.975,432.012a1.658,1.658,0,0,1,1.757,1.268h-.851a.891.891,0,0,0-.906-.6c-.637,0-1.058.471-1.058,1.3s.422,1.309,1.058,1.309a.871.871,0,0,0,.906-.6h.851a1.712,1.712,0,0,1-1.757,1.267,1.973,1.973,0,0,1,0-3.941Z" transform="translate(-175.52 -430.765)" fill="#fff"/>
          <path id="Caminho_159" data-name="Caminho 159" d="M205.446,432.012a1.623,1.623,0,0,1,1.322.616v-.554h.8v3.817h-.8v-.568a1.64,1.64,0,0,1-1.335.63,1.844,1.844,0,0,1-1.785-1.988A1.815,1.815,0,0,1,205.446,432.012Zm.166.686a1.17,1.17,0,0,0-1.155,1.268,1.2,1.2,0,0,0,1.155,1.3,1.292,1.292,0,0,0,0-2.57Z" transform="translate(-189.013 -430.765)" fill="#fff"/>
          <path id="Caminho_160" data-name="Caminho 160" d="M227.567,429.63a1.756,1.756,0,0,1,1.314.6v-1.842h.8v5.125h-.8v-.575a1.58,1.58,0,0,1-1.322.637,1.846,1.846,0,0,1-1.8-1.988A1.817,1.817,0,0,1,227.567,429.63Zm.159.686a1.17,1.17,0,0,0-1.155,1.268,1.2,1.2,0,0,0,1.155,1.3,1.292,1.292,0,0,0,0-2.57Z" transform="translate(-203.539 -428.383)" fill="#fff"/>
          <path id="Caminho_161" data-name="Caminho 161" d="M249.775,435.953a1.851,1.851,0,0,1-1.9-1.974,1.827,1.827,0,0,1,1.9-1.967,1.779,1.779,0,0,1,1.854,1.877,2.458,2.458,0,0,1-.028.388H248.69a1.048,1.048,0,0,0,1.086,1.011.923.923,0,0,0,.9-.533h.851A1.742,1.742,0,0,1,249.775,435.953Zm-1.079-2.313h2.11a.99.99,0,0,0-1.065-.963A1.039,1.039,0,0,0,248.7,433.639Z" transform="translate(-218.065 -430.765)" fill="#fff"/>
          <path id="Caminho_162" data-name="Caminho 162" d="M274.928,433.757c0-.7-.381-1.06-.954-1.06a.925.925,0,0,0-.962,1.06v2.134h-.782v-2.134c0-.7-.38-1.06-.954-1.06a.925.925,0,0,0-.962,1.06v2.134h-.788v-3.817h.788v.437a1.451,1.451,0,0,1,1.127-.5,1.469,1.469,0,0,1,1.37.755,1.562,1.562,0,0,1,2.9.872v2.251h-.782Z" transform="translate(-232.288 -430.765)" fill="#fff"/>
          <path id="Caminho_163" data-name="Caminho 163" d="M300.669,432.193h.816l-2.339,5.61h-.816l.775-1.856-1.5-3.754h.879l1.073,2.909Z" transform="translate(-250.734 -430.884)" fill="#fff"/>
        </g>
        <g id="Grupo_220" data-name="Grupo 220">
          <path id="Caminho_164" data-name="Caminho 164" d="M122.528,390.642h-4.709V379.709h4.506c2.284,0,3.551,1.191,3.551,2.82a2.52,2.52,0,0,1-1.862,2.506,2.65,2.65,0,0,1,2.112,2.647C126.126,389.421,124.8,390.642,122.528,390.642Zm-.516-9.163h-2v2.741h2c1.033,0,1.628-.47,1.628-1.363C123.639,381.98,123.045,381.479,122.012,381.479Zm.157,4.433h-2.159v2.945h2.206c1.064,0,1.69-.517,1.69-1.441C123.9,386.476,123.232,385.912,122.168,385.912Z" transform="translate(-117.819 -378.362)" fill="#fff"/>
          <path id="Caminho_165" data-name="Caminho 165" d="M145.318,377.794h2.19v11.591h-2.19Z" transform="translate(-135.883 -377.105)" fill="#fff"/>
          <path id="Caminho_166" data-name="Caminho 166" d="M158.972,394.825a4.48,4.48,0,1,1,4.522-4.48A4.336,4.336,0,0,1,158.972,394.825Zm0-1.911a2.309,2.309,0,0,0,2.269-2.569,2.245,2.245,0,1,0-4.443,0C156.8,392.068,157.8,392.914,158.972,392.914Z" transform="translate(-141.965 -382.403)" fill="#fff"/>
          <path id="Caminho_167" data-name="Caminho 167" d="M186.089,385.865a3.868,3.868,0,0,1,4.084,3.07H187.81a1.7,1.7,0,0,0-1.736-1.206c-1.22,0-2.034.924-2.034,2.615s.813,2.6,2.034,2.6a1.652,1.652,0,0,0,1.736-1.191h2.363a3.954,3.954,0,0,1-4.084,3.07,4.484,4.484,0,0,1,0-8.96Z" transform="translate(-159.85 -382.403)" fill="#fff"/>
          <path id="Caminho_168" data-name="Caminho 168" d="M209.074,377.794h2.19v6.595l2.91-3.681h2.847l-3.818,4.354,3.849,4.323h-2.847l-2.941-3.7v3.7h-2.19Z" transform="translate(-177.765 -377.105)" fill="#fff"/>
          <path id="Caminho_169" data-name="Caminho 169" d="M236.528,385.865a3.868,3.868,0,0,1,4.083,3.07h-2.363a1.7,1.7,0,0,0-1.736-1.206c-1.221,0-2.034.924-2.034,2.615s.813,2.6,2.034,2.6a1.652,1.652,0,0,0,1.736-1.191h2.363a3.954,3.954,0,0,1-4.083,3.07,4.484,4.484,0,0,1,0-8.96Z" transform="translate(-192.983 -382.403)" fill="#fff"/>
          <path id="Caminho_170" data-name="Caminho 170" d="M259.512,377.794h2.19v3.994a3.33,3.33,0,0,1,2.691-1.206c1.956,0,3.379,1.316,3.379,3.713v5.091h-2.19v-4.793a1.95,1.95,0,1,0-3.88,0v4.793h-2.19Z" transform="translate(-210.898 -377.105)" fill="#fff"/>
          <path id="Caminho_171" data-name="Caminho 171" d="M290.15,385.865a3.426,3.426,0,0,1,2.863,1.378v-1.237h2.206v8.678h-2.206v-1.269a3.416,3.416,0,0,1-2.879,1.41c-2.191,0-3.943-1.8-3.943-4.511S287.944,385.865,290.15,385.865Zm.563,1.927a2.313,2.313,0,0,0-2.284,2.522,2.37,2.37,0,0,0,2.284,2.584,2.567,2.567,0,0,0,0-5.106Z" transform="translate(-228.424 -382.403)" fill="#fff"/>
          <path id="Caminho_172" data-name="Caminho 172" d="M316.245,377.072a1.347,1.347,0,1,1,1.346,1.284A1.285,1.285,0,0,1,316.245,377.072Zm.235,2.318h2.19v8.678h-2.19Z" transform="translate(-248.166 -375.788)" fill="#fff"/>
          <path id="Caminho_173" data-name="Caminho 173" d="M333.854,389.92a1.95,1.95,0,1,0-3.88,0v4.793h-2.19v-8.678h2.19v1.081a3.236,3.236,0,0,1,2.613-1.206c2.018,0,3.457,1.316,3.457,3.713v5.091h-2.19Z" transform="translate(-255.745 -382.433)" fill="#fff"/>
        </g>
      </g>
      <g id="Grupo_300" data-name="Grupo 300" transform="translate(10.15 0)">
        <g id="Grupo_228" data-name="Grupo 228" transform="translate(14.893)">
          <g id="Grupo_223" data-name="Grupo 223" transform="translate(14.798 7.387)">
            <g id="Grupo_222" data-name="Grupo 222">
              <path id="Caminho_174" data-name="Caminho 174" d="M241.331,288l-7.389-3.7v7.4Z" transform="translate(-233.942 -284.306)" fill="#f58a1f"/>
            </g>
          </g>
          <g id="Grupo_225" data-name="Grupo 225" transform="translate(0 3.698)">
            <g id="Grupo_224" data-name="Grupo 224">
              <path id="Caminho_175" data-name="Caminho 175" d="M198.2,280.963v-7.4l-7.389,3.7Z" transform="translate(-190.812 -273.565)" fill="#f58a1f"/>
            </g>
          </g>
          <g id="Grupo_227" data-name="Grupo 227" transform="translate(14.778)">
            <g id="Grupo_226" data-name="Grupo 226">
              <path id="Caminho_176" data-name="Caminho 176" d="M241.273,266.5l-7.389-3.7v7.4Z" transform="translate(-233.885 -262.8)" fill="#f58a1f"/>
            </g>
          </g>
        </g>
        <g id="Grupo_230" data-name="Grupo 230" transform="translate(14.893 22.626)">
          <g id="Grupo_229" data-name="Grupo 229">
            <path id="Caminho_177" data-name="Caminho 177" d="M198.2,336.065v-7.4l-7.389,3.7Z" transform="translate(-190.812 -328.667)" fill="#f58a1f"/>
          </g>
        </g>
        <g id="Grupo_232" data-name="Grupo 232" transform="translate(44.448 15.228)">
          <g id="Grupo_231" data-name="Grupo 231">
            <path id="Caminho_178" data-name="Caminho 178" d="M284.342,314.528v-7.4l-7.389,3.7Z" transform="translate(-276.954 -307.13)" fill="#f58a1f"/>
          </g>
        </g>
        <g id="Grupo_234" data-name="Grupo 234" transform="translate(37.037 22.626)">
          <g id="Grupo_233" data-name="Grupo 233">
            <path id="Caminho_179" data-name="Caminho 179" d="M262.766,332.366l-7.39-3.7-.023,7.4Z" transform="translate(-255.353 -328.667)" fill="#f58a1f"/>
          </g>
        </g>
        <g id="Grupo_236" data-name="Grupo 236" transform="translate(7.504 15.228)">
          <g id="Grupo_235" data-name="Grupo 235">
            <path id="Caminho_180" data-name="Caminho 180" d="M176.663,310.83l-7.39-3.7v7.4Z" transform="translate(-169.274 -307.132)" fill="#f58a1f"/>
          </g>
        </g>
        <g id="Grupo_238" data-name="Grupo 238" transform="translate(0.116 11.529)">
          <g id="Grupo_237" data-name="Grupo 237">
            <path id="Caminho_181" data-name="Caminho 181" d="M155.129,300.061l-7.388-3.7v7.4Z" transform="translate(-147.741 -296.363)" fill="#fff"/>
          </g>
        </g>
        <g id="Grupo_240" data-name="Grupo 240" transform="translate(22.282 22.626)">
          <g id="Grupo_239" data-name="Grupo 239">
            <path id="Caminho_182" data-name="Caminho 182" d="M219.754,332.339l-7.406-3.671v7.4Z" transform="translate(-212.348 -328.667)" fill="#fff"/>
          </g>
        </g>
        <g id="Grupo_242" data-name="Grupo 242" transform="translate(51.838 15.227)">
          <g id="Grupo_241" data-name="Grupo 241">
            <path id="Caminho_183" data-name="Caminho 183" d="M305.88,310.828l-7.388-3.7v7.4Z" transform="translate(-298.492 -307.129)" fill="#fff"/>
          </g>
        </g>
        <g id="Grupo_244" data-name="Grupo 244" transform="translate(7.504 18.927)">
          <g id="Grupo_243" data-name="Grupo 243">
            <path id="Caminho_184" data-name="Caminho 184" d="M176.663,325.3v-7.4l-7.39,3.7Z" transform="translate(-169.274 -317.899)" fill="#fff"/>
          </g>
        </g>
        <g id="Grupo_246" data-name="Grupo 246" transform="translate(37.06 18.927)">
          <g id="Grupo_245" data-name="Grupo 245">
            <path id="Caminho_185" data-name="Caminho 185" d="M262.81,325.3v-7.4l-7.39,3.7Z" transform="translate(-255.42 -317.899)" fill="#fff"/>
          </g>
        </g>
        <g id="Grupo_248" data-name="Grupo 248" transform="translate(29.651 26.355)">
          <g id="Grupo_247" data-name="Grupo 247">
            <path id="Caminho_186" data-name="Caminho 186" d="M241.218,343.193l-7.394-3.668,0,7.379Z" transform="translate(-233.824 -339.525)" fill="#fff"/>
          </g>
        </g>
        <g id="Grupo_250" data-name="Grupo 250" transform="translate(51.839 11.445)">
          <g id="Grupo_249" data-name="Grupo 249">
            <path id="Caminho_187" data-name="Caminho 187" d="M305.882,303.6l-.074-.037L298.5,299.9l.091-.046,7.348-3.739v.084Zm-7.158-3.7,7.057,3.533.05-7.149Z" transform="translate(-298.496 -296.118)" fill="#fff"/>
          </g>
        </g>
        <g id="Grupo_252" data-name="Grupo 252" transform="translate(29.595 22.594)">
          <g id="Grupo_251" data-name="Grupo 251">
            <path id="Caminho_188" data-name="Caminho 188" d="M241.112,336l-.073-.036-7.376-3.645,7.531-3.749v.084Zm-7.218-3.682,7.117,3.517.078-7.1Z" transform="translate(-233.663 -328.574)" fill="#fff"/>
          </g>
        </g>
        <g id="Grupo_254" data-name="Grupo 254" transform="translate(44.448 18.925)">
          <g id="Grupo_253" data-name="Grupo 253">
            <path id="Caminho_189" data-name="Caminho 189" d="M276.952,325.3v-7.4l7.423,3.686-.092.046Zm.1-7.238v7.072l7.09-3.551Z" transform="translate(-276.952 -317.894)" fill="#fff"/>
          </g>
        </g>
        <g id="Grupo_256" data-name="Grupo 256" transform="translate(22.282 26.298)">
          <g id="Grupo_255" data-name="Grupo 255">
            <path id="Caminho_190" data-name="Caminho 190" d="M219.718,346.79l-7.371-3.705,7.379-3.727v.083Zm-7.143-3.705,7.041,3.539.008-7.1Z" transform="translate(-212.347 -339.358)" fill="#fff"/>
          </g>
        </g>
        <g id="Grupo_258" data-name="Grupo 258" transform="translate(14.893 13.025)">
          <g id="Grupo_257" data-name="Grupo 257">
            <path id="Caminho_191" data-name="Caminho 191" d="M198.2,308.115v-7.4l-7.389,3.7Z" transform="translate(-190.812 -300.717)" fill="#f58a1f"/>
          </g>
        </g>
        <g id="Grupo_260" data-name="Grupo 260" transform="translate(44.448 5.627)">
          <g id="Grupo_259" data-name="Grupo 259">
            <path id="Caminho_192" data-name="Caminho 192" d="M284.342,286.579v-7.4l-7.389,3.7Z" transform="translate(-276.954 -279.18)" fill="#f58a1f"/>
          </g>
        </g>
        <g id="Grupo_262" data-name="Grupo 262" transform="translate(37.06 13.025)">
          <g id="Grupo_261" data-name="Grupo 261">
            <path id="Caminho_193" data-name="Caminho 193" d="M262.81,304.416l-7.39-3.7v7.4Z" transform="translate(-255.42 -300.717)" fill="#f58a1f"/>
          </g>
        </g>
        <g id="Grupo_264" data-name="Grupo 264" transform="translate(7.504 5.628)">
          <g id="Grupo_263" data-name="Grupo 263">
            <path id="Caminho_194" data-name="Caminho 194" d="M176.663,282.882l-7.39-3.7v7.4Z" transform="translate(-169.274 -279.184)" fill="#f58a1f"/>
          </g>
        </g>
        <g id="Grupo_266" data-name="Grupo 266" transform="translate(22.282 13.025)">
          <g id="Grupo_265" data-name="Grupo 265">
            <path id="Caminho_195" data-name="Caminho 195" d="M219.737,304.416l-7.389-3.7v7.4Z" transform="translate(-212.348 -300.717)" fill="#fff"/>
          </g>
        </g>
        <g id="Grupo_268" data-name="Grupo 268" transform="translate(51.838 5.627)">
          <g id="Grupo_267" data-name="Grupo 267">
            <path id="Caminho_196" data-name="Caminho 196" d="M305.88,282.88l-7.388-3.7v7.4Z" transform="translate(-298.492 -279.18)" fill="#fff"/>
          </g>
        </g>
        <g id="Grupo_270" data-name="Grupo 270" transform="translate(7.504 9.326)">
          <g id="Grupo_269" data-name="Grupo 269">
            <path id="Caminho_197" data-name="Caminho 197" d="M176.663,297.348v-7.4l-7.39,3.7Z" transform="translate(-169.274 -289.951)" fill="#fff"/>
          </g>
        </g>
        <g id="Grupo_272" data-name="Grupo 272" transform="translate(37.06 9.326)">
          <g id="Grupo_271" data-name="Grupo 271">
            <path id="Caminho_198" data-name="Caminho 198" d="M262.81,297.348v-7.4l-7.39,3.7Z" transform="translate(-255.42 -289.951)" fill="#fff"/>
          </g>
        </g>
        <g id="Grupo_274" data-name="Grupo 274" transform="translate(29.671 16.724)">
          <g id="Grupo_273" data-name="Grupo 273">
            <path id="Caminho_199" data-name="Caminho 199" d="M241.273,315.185l-7.389-3.7v7.4Z" transform="translate(-233.885 -311.486)" fill="#fff"/>
          </g>
        </g>
        <g id="Grupo_276" data-name="Grupo 276" transform="translate(44.446 9.327)">
          <g id="Grupo_275" data-name="Grupo 275">
            <path id="Caminho_200" data-name="Caminho 200" d="M276.946,297.35l0-7.4.074.036,7.406,3.634-.093.046Zm.106-7.235,0,7.069,7.148-3.563Z" transform="translate(-276.946 -289.951)" fill="#fff"/>
          </g>
        </g>
        <g id="Grupo_278" data-name="Grupo 278" transform="translate(0 5.628)">
          <g id="Grupo_277" data-name="Grupo 277">
            <path id="Caminho_201" data-name="Caminho 201" d="M154.913,286.584l-.074-.036-7.436-3.665,7.5-3.7v.082Zm-7.277-3.7,7.174,3.537,0-7.07Z" transform="translate(-147.403 -279.185)" fill="#fff"/>
          </g>
        </g>
        <g id="Grupo_280" data-name="Grupo 280" transform="translate(14.89 9.326)">
          <g id="Grupo_279" data-name="Grupo 279">
            <path id="Caminho_202" data-name="Caminho 202" d="M190.8,297.349v-.082l0-7.317.074.037,7.393,3.7-.093.046Zm.1-7.233,0,7.069,7.132-3.5Z" transform="translate(-190.801 -289.95)" fill="#fff"/>
          </g>
        </g>
        <g id="Grupo_282" data-name="Grupo 282" transform="translate(22.279 16.714)">
          <g id="Grupo_281" data-name="Grupo 281">
            <path id="Caminho_203" data-name="Caminho 203" d="M219.732,318.867l-7.394-3.7.092-.046,7.311-3.663v.083Zm-7.165-3.7,7.063,3.534.008-7.077Z" transform="translate(-212.338 -311.458)" fill="#fff"/>
          </g>
        </g>
        <g id="Grupo_284" data-name="Grupo 284" transform="translate(37.058 3.698)">
          <g id="Grupo_283" data-name="Grupo 283">
            <path id="Caminho_204" data-name="Caminho 204" d="M255.428,280.959v-.082l-.013-7.312.074.036,7.433,3.663Zm.089-7.229.013,7.065,7.16-3.531Z" transform="translate(-255.415 -273.565)" fill="#fff"/>
          </g>
        </g>
        <g id="Grupo_286" data-name="Grupo 286" transform="translate(22.282 7.315)">
          <g id="Grupo_285" data-name="Grupo 285">
            <path id="Caminho_205" data-name="Caminho 205" d="M219.756,291.565l-.073-.037-7.335-3.653,7.444-3.781Zm-7.181-3.691,7.079,3.526.033-7.138Z" transform="translate(-212.347 -284.094)" fill="#fff"/>
          </g>
        </g>
        <g id="Grupo_288" data-name="Grupo 288" transform="translate(29.59 13.023)">
          <g id="Grupo_287" data-name="Grupo 287">
            <path id="Caminho_206" data-name="Caminho 206" d="M241.118,308.113l-7.47-3.668,7.479-3.734v.083Zm-7.239-3.668,7.136,3.5.009-7.071Z" transform="translate(-233.648 -300.712)" fill="#fff"/>
          </g>
        </g>
        <g id="Grupo_290" data-name="Grupo 290" transform="translate(0.117 15.224)">
          <g id="Grupo_289" data-name="Grupo 289">
            <path id="Caminho_207" data-name="Caminho 207" d="M155.135,314.524l-.074-.037-7.317-3.665.091-.046,7.3-3.656v.083Zm-7.162-3.7,7.06,3.536,0-7.072Z" transform="translate(-147.744 -307.12)" fill="#fff"/>
          </g>
        </g>
        <g id="Grupo_292" data-name="Grupo 292" transform="translate(14.89 18.925)">
          <g id="Grupo_291" data-name="Grupo 291">
            <path id="Caminho_208" data-name="Caminho 208" d="M190.8,325.293v-.083l0-7.317.074.037,7.347,3.678-.093.046Zm.1-7.234,0,7.068,7.086-3.52Z" transform="translate(-190.801 -317.893)" fill="#fff"/>
          </g>
        </g>
        <g id="Grupo_297" data-name="Grupo 297" transform="translate(22.282 3.697)">
          <g id="Grupo_294" data-name="Grupo 294" transform="translate(0 0.001)">
            <g id="Grupo_293" data-name="Grupo 293">
              <path id="Caminho_209" data-name="Caminho 209" d="M219.737,277.264l-7.389-3.7v7.4Z" transform="translate(-212.348 -273.565)" fill="#fff"/>
            </g>
          </g>
          <g id="Grupo_296" data-name="Grupo 296" transform="translate(7.35)">
            <g id="Grupo_295" data-name="Grupo 295">
              <path id="Caminho_210" data-name="Caminho 210" d="M241.21,280.953l-.011-7.39-7.427,3.68Z" transform="translate(-233.772 -273.562)" fill="#fff"/>
            </g>
          </g>
        </g>
        <g id="Grupo_299" data-name="Grupo 299" transform="translate(22.28 0)">
          <g id="Grupo_298" data-name="Grupo 298">
            <path id="Caminho_211" data-name="Caminho 211" d="M219.784,270.249l-.075-.038-7.367-3.712,7.393-3.7v.082Zm-7.213-3.75,7.11,3.582-.047-7.116Z" transform="translate(-212.342 -262.8)" fill="#fff"/>
          </g>
        </g>
      </g>
    </g>
  </g>
</svg>
