<?xml version="1.0" encoding="utf-8"?>
<!-- Generator: Adobe Illustrator 26.1.0, SVG Export Plug-In . SVG Version: 6.00 Build 0)  -->
<svg version="1.1" id="Camada_1" xmlns="http://www.w3.org/2000/svg" xmlns:xlink="http://www.w3.org/1999/xlink" x="0px" y="0px"
	 viewBox="0 0 82.7 15.2" style="enable-background:new 0 0 82.7 15.2;" xml:space="preserve">
<style type="text/css">
	.st0{enable-background:new    ;}
	.st1{fill:#3F6AB2;}
	.st2{fill:#6C93CD;}
</style>
<g id="Grupo_4116" transform="translate(-1131 -48)">
	<g class="st0">
		<path class="st1" d="M1159.2,59.5h-4.5l-0.7,2.1h-3.7l4.6-12.7h4.1l4.6,12.7h-3.7L1159.2,59.5z M1156.9,52.7l-1.4,4.1h2.7
			L1156.9,52.7z"/>
		<path class="st1" d="M1169.6,48.9h3.5v8.4c0,2.9-1.7,4.4-4.4,4.4c-2.8,0-4.7-1.6-4.7-4.7h3.5c0,1.1,0.4,1.5,1.1,1.5
			c0.6,0,1-0.3,1-1.2V48.9z"/>
		<path class="st1" d="M1175.2,48.9h3.5v7.4c0,1.3,0.6,2.1,1.9,2.1s2-0.8,2-2.1v-7.4h3.5v7.4c0,3.6-2.5,5.5-5.6,5.5
			c-3.1,0-5.4-1.8-5.4-5.5V48.9z"/>
		<path class="st1" d="M1199.7,55.2c0,3.7-2.6,6.4-6.6,6.4h-5V48.9h5C1197.1,48.9,1199.7,51.5,1199.7,55.2z M1192.8,58.5
			c2,0,3.3-1.2,3.3-3.2c0-2.1-1.3-3.3-3.3-3.3h-1.2v6.5H1192.8z"/>
		<path class="st1" d="M1209.3,59.5h-4.5l-0.7,2.1h-3.7l4.6-12.7h4.1l4.6,12.7h-3.7L1209.3,59.5z M1207.1,52.7l-1.4,4.1h2.7
			L1207.1,52.7z"/>
	</g>
	<g id="Polígono_3">
		<path class="st2" d="M1143.9,53.8c1,0.5,1.3,1.8,0.8,2.7c-0.2,0.3-0.4,0.6-0.8,0.8l-9.9,5.6c-1,0.5-2.2,0.2-2.7-0.8
			c-0.2-0.3-0.3-0.6-0.3-1V50c0-1.1,0.9-2,2-2c0.3,0,0.7,0.1,1,0.3L1143.9,53.8z"/>
	</g>
</g>
</svg>
